<?xml version="1.0" encoding="UTF-8"?>
<svg version="1.1" viewBox="0 0 2048 1069" width="100" height="100" xmlns="http://www.w3.org/2000/svg">
<path transform="translate(1452,195)" d="m0 0h8l16 4 23 12 13 8 24 14 49 28 24 14 26 15 15 9 23 13 56 32 12 9 7 8 7 14 2 7 1 39v259l-1 12-5 13-7 9-7 7-11 8-25 14-26 14-15 9-22 13-17 10-35 20-25 14-21 13-26 15-22 13-17 9-15 2h-10l-13-1-17-9-10-5-11-7-26-15-17-10-26-15-18-10-15-9-22-13-32-18-14-8-25-14-15-9-14-9-11-11-7-11-4-16-1-15v-273l2-15 3-10 7-13 9-9 14-9 18-10 16-9 52-30 20-12 26-15 23-13 24-14 28-16 25-15 15-8 10-3z" fill="#669BD2"/>
<path transform="translate(581,196)" d="m0 0h9l12 3 16 8 13 8 20 12 28 17 26 15 13 8 40 24 17 10 25 15 24 14 22 13 12 9 8 8 7 12 3 9 1 6v296l-2 12-4 12-8 11-12 10-25 14-13 8-24 14-16 10-20 12-22 13-21 13-14 8-29 17-20 12-22 13-18 10-9 4h-28l-25-13-18-11-11-7-15-9-22-13-10-6-36-22-21-12-13-8-22-13-21-13-18-10-21-13-8-7-10-13-3-6-2-9-1-14v-286l2-12 4-11 8-11 10-9 24-15 26-15 55-33 23-14 29-17 19-11 28-17 13-8 30-18 11-3z" fill="#669BD2"/>
<path transform="translate(1750,367)" d="m0 0 3 3 4 12 1 39v259l-1 12-5 13-7 9-7 7-11 8-25 14-26 14-15 9-22 13-17 10-35 20-25 14-21 13-26 15-22 13-17 9-15 2h-10l-13-1-17-9-10-5-11-7-26-15-17-10-26-15-18-10-15-9-22-13-32-18-14-8-25-14-15-9-14-9-11-11-3-5v-2l24-13 24-14 25-14 27-16 17-10h3l9 14 8 11 13 15 14 13 16 12 13 8 19 10 18 7 23 6 20 3h42l29-5 27-9 21-10 19-12 11-9 10-9 8-7 7-8 12-15 8-13v-3l-26-15-23-13-17-10-18-10h-2l-6 9-11 12-9 8-13 8-16 7-16 4-7 1h-19l-16-3-16-6-15-8-11-9-11-11-7-10-6-12-6-17-3-15v-19l4-20 6-15 5-10 8-11 15-15 14-9 12-6 17-5 6-1h27l21 5 17 8 14 10 15 15 6 9v3l28-16 26-15 41-23 15-9 49-28 26-15 21-12z" fill="#045999"/>
<path transform="translate(868,368)" d="m0 0h3l5 13 1 6v296l-2 12-4 12-8 11-12 10-25 14-13 8-24 14-16 10-20 12-22 13-21 13-14 8-29 17-20 12-22 13-18 10-9 4h-28l-25-13-18-11-11-7-15-9-22-13-10-6-36-22-21-12-13-8-22-13-21-13-18-10-21-13-8-7-8-10 1-4 12-6 15-9 21-12 20-12 23-14 21-13 4 1 10 16 13 16 13 14 8 7 17 13 19 11 15 7 24 8 26 5 15 1h12l22-2 25-5 21-7 16-8 11-6 17-12 13-11 16-16 10-13 11-17v-4l-14-8-28-17-24-14-14-8h-3l-6 9-12 13-11 9-16 9-14 5-7 2-8 1h-20l-15-3-14-5-16-9-15-13-11-14-8-16-6-18-2-11v-23l4-18 6-15 6-11 10-13 11-11 15-10 14-6 15-4 7-1h19l18 4 15 6 12 7 11 9 7 7 10 14v2l7-3 16-9 20-12 32-19 17-10 18-11 30-18 54-32z" fill="#035999"/>
<path transform="translate(1444,334)" d="m0 0h24l19 2 24 5 21 7 23 11 16 10 13 10 12 11 13 13 9 11 9 13 4 6-2 4-24 14-18 10-24 14-19 11h-2l-4-8-11-12-8-8-14-9-15-7-21-5h-27l-17 4-13 5-16 10-10 9-9 9-9 14-8 20-4 20v19l4 18 6 16 6 12 9 11 10 10 10 7 15 8 17 6 13 2h19l17-3 16-6 13-7 13-10 9-9 8-11 2-3 6 2 23 13 45 26 13 8-1 5-8 12-8 10-9 10-7 8-10 9-17 13-20 12-19 9-25 8-16 3-13 2h-42l-24-4-25-7-20-9-18-10-14-10-11-9-13-12-9-10-9-12-10-15-8-14-7-15-7-21-5-25-2-17v-18l2-22 4-21 6-20 8-18 8-15 12-18 8-10 11-12 9-9 14-11 16-11 16-9 16-7 19-6 18-4z" fill="#FEFEFE"/>
<path transform="translate(569,336)" d="m0 0h35l24 4 19 5 21 9 17 9 17 12 14 12 17 17 12 16 9 15-1 3-29 17-15 9-32 19-5 3h-4l-7-11-12-13-12-9-16-8-15-5-11-2h-19l-16 3-16 6-15 9-12 11-8 9-8 13-7 16-4 15-1 6v23l4 18 5 13 7 14 11 14 10 9 14 9 16 7 12 3 7 1h20l11-2 13-4 16-8 10-7 12-11 10-13 2-3 5 1 26 15 50 30 3 2-1 5-10 16-8 10-9 10-14 14-17 13-16 10-16 8-18 7-25 6-14 2-15 1h-12l-15-1-26-5-24-8-21-10-17-11-13-10-17-16-7-8-13-17-15-25-8-19-6-19-4-20-2-18v-30l3-22 6-25 7-19 9-19 10-16 9-12 18-20 8-7 14-11 17-11 15-8 21-8 15-4 17-3z" fill="#FEFEFE"/>
<path transform="translate(1279,638)" d="m0 0h3l9 14 8 11 13 15 14 13 16 12 13 8 19 10 18 7 23 6 20 3h42l29-5 27-9 21-10 19-12 11-9 10-9 8-7 7-8 12-15 8-13h2v-2l5 2 4 2v2l4 1 10 4 17 10 14 9 11 6 14 8 17 9 5 2 6 4 15 4-2 6-11 12-13 10-25 14-26 14-15 9-22 13-17 10-35 20-25 14-21 13-26 15-22 13-17 9-15 2h-10l-13-1-17-9-10-5-11-7-26-15-17-10-26-15-18-10-15-9-22-13-32-18-14-8-25-14-15-9-14-9-11-11-3-5v-2l24-13 24-14 25-14 27-16z" fill="#03437D"/>
<path transform="translate(756,638)" d="m0 0 1 2h2l4 4 17 9 11 6 14 8 39 23 18 9 5 1 2-5 4-8 3-2v7l-5 15-8 11-12 10-25 14-13 8-24 14-16 10-20 12-22 13-21 13-14 8-29 17-20 12-22 13-18 10-9 4h-28l-25-13-18-11-11-7-15-9-22-13-10-6-36-22-21-12-13-8-22-13-21-13-18-10-21-13-8-7-8-10 1-4 12-6 15-9 21-12 20-12 23-14 21-13 4 1 10 16 13 16 13 14 8 7 17 13 19 11 15 7 24 8 26 5 15 1h12l22-2 25-5 21-7 16-8 11-6 17-12 13-11 16-16 10-13 11-17z" fill="#03437D"/>
<path transform="translate(1442,436)" d="m0 0h27l21 5 17 8 14 10 15 15 6 9 1 4-16 9-30 18-29 16-26 15-24 14-26 15-17 10-5 2-2 2-8-20-4-15-1-6v-19l4-20 6-15 5-10 8-11 15-15 14-9 12-6 17-5z" fill="#669BD2"/>
<path transform="translate(576,437)" d="m0 0h19l18 4 15 6 12 7 11 9 7 7 10 14v2l3 1-26 15-28 17-27 16-40 24-28 17-15 9-5 1-1 3-7-16-4-13-2-11v-23l4-18 6-15 6-11 10-13 11-11 15-10 14-6 15-4z" fill="#669BD2"/>
<path transform="translate(1458,535)" d="m0 0h2l1 4 11 7 16 8 15 8 10 6 17 10 7 5v2l7 1-4 8-9 11-9 9-14 10-17 8-13 4-13 2h-19l-16-3-16-6-15-8-11-9-11-11-7-10-1-5 17-9 20-12 26-15z" fill="#04447E"/>
<path transform="translate(589,535)" d="m0 0h2l-1 5 2 1 5 5 8 3 15 9 19 10 14 10 7 4 10 5-4 8-11 13-12 11-15 9-14 6-11 3-8 1h-20l-15-3-14-5-16-9-15-13-11-14-2-3v-5l12-6 23-14 50-30z" fill="#04447E"/>
<path transform="translate(1614,503)" d="m0 0h21l1 1v22h22v21l-4 1-18-1v22l-1 1h-21v-23h-23v-21h23z" fill="#FEFEFE"/>
<path transform="translate(1699,503)" d="m0 0 21 1v22h22v21h-22v22l-1 1h-20l-1-23h-22v-21h22v-19z" fill="#FEFEFE"/>
<path transform="translate(703,605)" d="m0 0 7 2 9 6 10 6 7 4 16 11v3l-14-8-28-17-9-5z" fill="#1C5993"/>
<path transform="translate(744,442)" d="m0 0 2 1-5 5-8 5-15 9-7 4-4 1 2-4 29-17z" fill="#18568F"/>
<path transform="translate(1721,548)" d="m0 0h17l-1 2-10 1-2 3-1 11-3 3z" fill="#03437D"/>
<path transform="translate(1589,613)" d="m0 0 8 1 11 6v2l5 2 2 4-5-2-21-12z" fill="#1D5A93"/>
<path transform="translate(1721,503)" d="m0 0 2 4 1 8 2 9 3 1h-8z" fill="#03437D"/>
<path transform="translate(744,442)" d="m0 0 2 1-5 5-8 5-5 3-2-1 5-5z" fill="#1A5790"/>
<path transform="translate(1637,511)" d="m0 0h1l2 9 6 3 1 2h-10z" fill="#03437D"/>
<path transform="translate(1615,628)" d="m0 0 7 1 6 4 4 3-2 4-1-3-14-8z" fill="#235F98"/>
<path transform="translate(1629,436)" d="m0 0 2 1-3 4-9 5-2-1v-2z" fill="#1D5A93"/>
<path transform="translate(671,486)" d="m0 0m-2 1h2l-1 3-10 5-5 3-2-1 13-8z" fill="#03437D"/>
<path transform="translate(1744,530)" d="m0 0 3 1v7l-1 4h-2z" fill="#03437D"/>
<path transform="translate(744,442)" d="m0 0 2 1-7 7-3-1v-2z" fill="#27639C"/>
</svg>
