<?xml version="1.0" encoding="UTF-8"?>
<svg version="1.1" viewBox="0 0 1164 1200" width="100px" height="100px" xmlns="http://www.w3.org/2000/svg">
<path transform="translate(137,235)" d="m0 0h423l17 1-1 22-14 169-6 71-3 34-1 8h60l-1-4-7-83-6-66-5-60-5-58-2-25v-8l2-1h438l2 1-5 63-12 138-9 103-10 109-4 48-9 4-47 14-68 19-55 15-10-1-14-4-1 14-10 116-7 81-4 46-5 3-55 16-107 31-13 4-12-3-130-38-34-10-4-2-5-52-16-185-2-23-21 6-8-1-78-23-71-21-24-8-3-3-8-88-18-215-12-145z" fill="#D4B93A"/>
<path transform="translate(137,235)" d="m0 0h423l17 1-1 22-14 169-6 71-3 34-1 7-9 1h-63l-1-3 6-69 1-17-160 1-43-1-2-2-5-55v-10l1-1 79-1 135 1 1-21 2-31-129 1h-143l4 51 7 79 3 39 2 1 192 1 1 1v11l-3 24-1 1h-63v10l3 25v16h-5v2h-9l-52-13-9-3-1-1-3-37-1-6h-48l1 19 5 59 2 7 26 7 39 10 46 12 7-2h7l4 36 4 44v16l-10 4-11 3-8-1-78-23-71-21-24-8-3-3-8-88-18-215-12-145z" fill="#C24F29"/>
<path transform="translate(587,235)" d="m0 0h439l2 1-5 63-12 138-9 103-10 109-4 48-9 4-47 14-68 19-55 15-10-1-13-4v-20l5-63 1-11 4-2 12 3 42-12 55-16 13-4 2-3 15-171-122-1 4-3 12-5 42-19 32-14 29-13 4-2h4l4-47v-9h-275l3 37 2 17h125l7 1-1 4-14 5-43 18-32 14-33 14-4 2 4 48 1 7 124 1h66l1 4-6 69-5 3-33 10-22 6-9-1-1-2 1-22 1-14v-12l-59-1-1-1-1-7-49-1-5-1v10h-45l-27-1-3-3-7-83-6-66-5-60-5-58-2-25v-8z" fill="#295FA8"/>
<path transform="translate(589,581)" d="m0 0h163l9 1 1 1-1 17-2 24-7 82-4 39-1 11-2 25-2 27-2 17-2 23-2 19-3 40-2 21-2 27-2 14-2 6h-2l-1 2-20 7-13 4-12 3-24 7-21 6-30 8-13 2-5-4-1-13-1-81v-39l1-24v-271z" fill="#FCD645"/>
<path transform="translate(669,331)" d="m0 0h275l1 1-1 21-3 33-1 2-8 3-31 14-70 31-11 5-5 2 114 1 6 1v11l-12 138-2 22-3 4-40 12-66 19-5 1-13-4v-10l4-45 1-2h10l36-10 22-7 1-1 6-69v-3h-66l-124-1-1-1-3-32-2-23 14-7 33-14 37-16 36-15 7-2 1-3h-132l-1-1-4-39-1-15z" fill="#FCFCFC"/>
<path transform="translate(807,273)" d="m0 0h179v18l-3 39-11 125-7 80-4 44-3 35-4 50-2 5-26 8-25 7-54 15-35 10h-5v-57l9-3 41-12 48-14 13-4 2-3 15-171-122-1 4-3 12-5 42-19 32-14 29-13 4-2h4l4-47v-9h-158l-11-1v-1h31v-55z" fill="#4A96D4"/>
<path transform="translate(235,331)" d="m0 0h259v19l-3 33h-150l-64 1v10l5 55 1 1 47 1h156v17l-6 71-1 1h-50l-1-1 1-13 1-11v-11l-192-1-3-2-7-86-6-68v-15z" fill="#F9EBE7"/>
<path transform="translate(601,639)" d="m0 0h136l3 2-4 51-1 1-92 1v79l27-3 55-7 5 1-2 35-3 38-5 66-2 7-9 3-39 11-68 18-2-1v-51l3-2 34-9 39-11 9-3 2-35 1-9-33 6-50 9-5-1v-195z" fill="#FCFCFC"/>
<path transform="translate(524,640)" d="m0 0h40l1 51v250l-4 1-26-8-28-8-48-14-20-6-1-1v-52l9 2 63 18 12 3 1-235z" fill="#FCFCFC"/>
<path transform="translate(239,532)" d="m0 0h48l2 7 3 37 20 6 41 10h13l2 4 4 47-2 2-12 3-46-12-43-11-22-6-2-2-2-17-5-61v-6z" fill="#F9EBE7"/>
<path transform="translate(330,451)" d="m0 0h156v17l-6 71-1 1h-50l-1-1 1-13 1-11v-11l-22-1-43-1-7-2-3-6 1-8v-31l4-2h-11l-19-1z" fill="#FCFCFC"/>
<path transform="translate(365,331)" d="m0 0h129v19l-2 24-3 8h-99l-28-2-6-2-1-6v-36l2-1 31-2-33 1-5 1-12-1-46-1v-1z" fill="#FCFCFC"/>
<path transform="translate(684,500)" d="m0 0h190l1 4-6 69-5 3-33 10-22 6h-6l2-2 1-18 1-71h-123z" fill="#4A96D4"/>
<path transform="translate(362,592)" d="m0 0 5 1 2 13 3 37-2 2-12 3-8-2v-1l5-1 1-8v-41l2-2z" fill="#FCFCFC"/>
<path transform="translate(341,382)" d="m0 0 149 1v1l-87 1h-125l1 19 4 42 1 3 202 1v1l-160 1-43-1-2-2-5-55v-10l1-1z" fill="#D4B93A"/>
<path transform="translate(686,530)" d="m0 0 54 1 1 1v7l-2 1h-47l-6-1z" fill="#FCFCFA"/>
<path transform="translate(299,500)" d="m0 0h49l16 2v1h-126v-1l26-1z" fill="#FDFDFD"/>
<path transform="translate(238,530)" d="m0 0h49l2 2 2 15 2 29 5 1-4 1-3-2-3-37-1-6h-48l1 19 2 22v13h-1l-4-44v-12z" fill="#D4B93A"/>
<path transform="translate(600,640)" d="m0 0h1l1 193h8l5-1h7v1l-17 3-5-1z" fill="#F9EBE7"/>
<path transform="translate(347,379)" d="m0 0h9l6 2 15 1v1h-98v-1l10-1 42-1z" fill="#FDFDFD"/>
<path transform="translate(742,386)" d="m0 0h57l7 1-1 4-7 1 3-2h2v-2h-128v-1z" fill="#4A96D4"/>
<path transform="translate(287,533)" d="m0 0h1l2 20 2 23 12 4v1l-9-1-5-3-1-2-2-26-2-3-5-2v-7l4-1 1-2 1 1z" fill="#FCFCFC"/>
<path transform="translate(365,331)" d="m0 0h39v1l-16 1-33 1-5 1-12-1-46-1v-1z" fill="#FDFDFD"/>
</svg>
