<?xml version="1.0" encoding="UTF-8"?>
<svg version="1.1" viewBox="0 0 2048 1239" width="1280" height="1280" xmlns="http://www.w3.org/2000/svg">
<path transform="translate(502,386)" d="m0 0 25 2 26 5 26 8 20 9 17 9 15 10 13 10 12 11 2 1v2l4 2 12 13 13 17 12 19 8 15 10 25 6 21 4 20 2 19v31l-3 26-6 25-6 18-8 18-10 19-11 16-10 13-12 13-13 13-14 11-14 10-21 12-23 10-18 6-21 5-22 3-16 1h-11l-25-2-23-4-27-8-21-9-19-10-12-8-16-12-12-11-6-5-7-8-9-10-11-15-11-18-9-17-10-26-6-23-3-19-1-9v-40l3-22 5-22 7-21 9-20 10-18 11-16 13-16 12-13 8-7 13-11 16-11 17-10 21-10 27-9 24-5 15-2zm-21 36-22 3-21 5-19 7-19 9-19 12-16 13-20 20-13 17-9 15-8 16-7 17-6 22-3 19-1 11v23l3 24 5 21 7 20 8 16 6 11 11 16 11 13 18 18 13 10 17 11 16 8 14 6 15 5 23 5 18 2h27l23-3 20-5 20-7 22-11 18-12 11-9 12-11 8-8 11-14 7-10 10-17 9-20 6-19 5-24 1-9v-37l-3-20-5-20-7-19-8-17-10-16-12-16-12-13-8-8-11-9-14-10-16-9-19-9-22-7-19-4-17-2z" fill="#ffffff"/>
<path transform="translate(578,477)" d="m0 0 5 1 7 14v9l-4 11 1 3 8 7 6 7 14-5h7l10 4 7 5v1h-9l-10-5-9-1-8 3 4 5 1 2v7l-4 5-4 1-2 5-6 5-5 2h-10l-4-1v17l12 8 9-1h10l5 1-2 2-18 3-9-1-7-3 3 7 20 7 6 3v2h-8l-22-5 3 6 10 9 3 5v2l-5-1-16-13-7-14v-3h-2l7 38 6 41 3 33 1 23v23l-1 19-2 12-4 2-5-4-11-16-10-17-10-21-5-17-2-14v-21l4-10 5-7 4-13 5-51-8-2v14l-7 14-8 10-9 10-11 12-13 12-18 13-24 14-27 14-18 8-2-1 16-34 11-20 13-21 11-14 11-12 13-13 8-7 12-9 10-5 3-1h12l2 1-3-9-23 3-31 3-12 5-10 6-8 2h-14l-23-4-15-5-22-11-18-11-10-8-4-5 1-3 9-2 10-1h53l36 3 49 7 32 6 2 1v-2l-6-2-13-7-11-14-2-5 8 5 10 10 5 1-5-21v-10l2 1 4 8 5 17 7 4-3-10v-8l3-17 1-2h2v25l8 12 12-1 5 1-2-6 1-11 5-8 6-4 5-6 2-1h6l6 4v2h2l3-13-5-12-2-3z" fill="#ffffff"/>
<path transform="translate(1096,519)" d="m0 0h6l1 154 3 14 5 7 7 4 16 3h16l16-3 6-3 5-5 4-8 1-162h24v160l-3 14-5 10-7 7-12 6-17 4-15 1h-12l-18-3-12-5-11-8-4-5-4 2-4 5-10 7-13 5-12 2h-26l-17-3-12-4-8-6-7-8-4-9-2-15v-157h24l1 156 2 10 5 8 8 5 18 3h13l17-3 8-4 6-8 2-7 1-160z" fill="#ffffff"/>
<path transform="translate(1306,517)" d="m0 0h36l22 3 16 5 10 7 7 10 3 8 1 8v161l-10 1h-13l-1-1v-73h-106v74h-24v-159l3-16 4-8 5-6 11-7 19-5zm0 19-16 3-9 4-5 4-4 7-2 12v57l1 1h106v-49l-1-16-3-8-7-8-9-4-18-3z" fill="#ffffff"/>
<path transform="translate(1504,517)" d="m0 0h21l22 2 17 4 12 6 5 4 6 9 3 7 2 13v16h-23l-1-16-3-11-5-6-8-4-12-3-8-1h-30l-18 3-10 4-5 4-4 10v28l3 8 6 5 13 4 73 12 13 5 9 7 7 8 4 11 1 8v21l-2 15-4 10-9 10-12 6-14 4-17 2h-38l-18-2-17-5-10-6-8-9-4-10-2-13v-25h23l2 28 4 10 7 6 16 4 16 2h23l18-3 10-4 5-5 3-5 1-4v-27l-4-10-8-6-16-4-67-11-12-4-9-6-7-7-4-8-2-7v-37l3-10 5-8 5-5 5-4 13-5 21-4z" fill="#ffffff"/>
<path transform="translate(834,517)" d="m0 0h42l20 3 12 4 11 6 7 6 5 8 3 10 1 116-2 19-4 10-9 10-8 5-17 5-12 2-12 1h-29l-18-2-17-4-14-7-7-7-6-12-2-16v-111l2-14 4-10 9-10 6-4 16-5zm19 19-16 1-14 3-9 4-6 5-4 8-1 5-1 113 2 9 6 9 9 6 7 2 18 2h23l17-2 13-4 9-8 3-7 1-7 1-55v-45l-1-16-3-8-5-6-10-5-16-3z" fill="#ffffff"/>
<path transform="translate(1632,519)" d="m0 0h101l14 2 16 5 10 7 6 7 5 10 2 11v58l-2 11-5 10-9 10-9 6-9 3-18 3h-78v57h-24zm24 20v104h71l14-2 9-5 8-9 3-8 1-7v-46l-3-11-9-10-8-4-11-2z" fill="#ffffff"/>
<path transform="translate(615,524)" d="m0 0h7l10 4 7 5v1h-9l-10-5-9-1-7 2v-2z" fill="#ffffff"/>
</svg>
